# xmcd
#
# Track frame offsets:
#	150
#	16150
#	35322
#	52770
#	67934
#	83678
#	101541
#	118072
#	138224
#	163044
#	180753
#	198855
#	215341
#
# Disc length: 3073 seconds
#
# Revision: 0
# Processed by: cddbd v1.5.2PL0 Copyright (c) Steve Scherf et al.
# Submitted via: audiograbber 1.83.01
#
DISCID=950bff0d
DTITLE=Rimes, LeAnn - Twisted angel
DYEAR=2002
DGENRE=Pop
TTITLE0=Life goes on
TTITLE1=Wound up
TTITLE2=The safest place
TTITLE3=Trouble with goodbye
TTITLE4=Damn
TTITLE5=Suddenly
TTITLE6=Tic toc
TTITLE7=Sign of life
TTITLE8=Review my kisses
TTITLE9=No way out
TTITLE10=Love is an army
TTITLE11=You made me find myself
TTITLE12=Twisted angel
EXTD=
EXTT0=
EXTT1=
EXTT2=
EXTT3=
EXTT4=
EXTT5=
EXTT6=
EXTT7=
EXTT8=
EXTT9=
EXTT10=
EXTT11=
EXTT12=
PLAYORDER=
